<svg xmlns="http://www.w3.org/2000/svg" width="24" height="24" fill="none" viewBox="0 0 24 24">
  <path fill="#94D82D" d="M22 13.32a8.177 8.177 0 1 1-16.354 0 8.177 8.177 0 0 1 16.354 0Z"/>
  <path fill="#18193F" fill-rule="evenodd" d="M12.767 3.184c-.652-.008-1.24.306-1.52.931a.682.682 0 0 1-1.244-.556c.534-1.195 1.67-1.75 2.78-1.738.943.01 1.913.429 2.555 1.244 1.509-.226 3.022.71 3.48 2.177 1.903.213 3.194 2.192 2.67 4.006a3.45 3.45 0 0 1 1.072 2.217c.081.993-.294 2.038-1.252 2.675a.681.681 0 1 1-.755-1.135c.481-.32.696-.848.648-1.429a2.075 2.075 0 0 0-.906-1.54.681.681 0 0 1-.231-.876c.597-1.18-.396-2.685-1.742-2.567a.681.681 0 0 1-.737-.61c-.112-1.107-1.29-1.852-2.333-1.5a.682.682 0 0 1-.815-.317 1.924 1.924 0 0 0-1.67-.982ZM6.997 4.39a.685.685 0 1 0 0 1.371.685.685 0 0 0 0-1.37Zm-2.048.686a2.048 2.048 0 1 1 4.096 0 2.048 2.048 0 0 1-4.096 0Zm-1.53 5.145a2.499 2.499 0 0 1 2.498-2.498c.714 0 1.388.027 1.947.548l1.77 1.648h1.734a.681.681 0 1 1 0 1.363H9.544c-.287 0-.564-.109-.774-.305L6.935 9.268c-.271-.253-.678-.183-1.018-.183-.627 0-1.136.509-1.136 1.136v3.058h1.66l.413-2.222a.681.681 0 1 1 1.34.25l-.477 2.563.404.862c.183.392.278.82.278 1.252v3.856a.681.681 0 1 1-1.362 0v-3.856a1.59 1.59 0 0 0-.15-.674l-.313-.668H4.78v1.818c0 .318-.095.628-.273.891l-1.944 2.87a.681.681 0 0 1-1.128-.763l1.943-2.87a.227.227 0 0 0 .04-.128v-1.838a.682.682 0 0 1 0-1.323V10.22Zm8.24-1.695c0-.376.306-.681.682-.681h2.551a2.953 2.953 0 0 1 2.953 2.953c0 .154.027.339.227.339h1.03a.681.681 0 1 1 0 1.362h-.797a3.403 3.403 0 0 1 1.48 2.81v3.71c0 .627-.51 1.135-1.136 1.135h-1.98a1.59 1.59 0 0 1-1.59-1.59v-.655h-5.034a.681.681 0 1 1 0-1.363h8.377v-1.237a2.045 2.045 0 0 0-2.045-2.044H9.05a.681.681 0 1 1 0-1.363h7.327c.163 0 .324.012.48.034-.275-.327-.375-.72-.375-1.138a1.59 1.59 0 0 0-1.59-1.59h-2.55a.681.681 0 0 1-.682-.682Zm6.763 9.383h-1.98v.655c0 .126.102.227.227.227h1.753v-.882Zm-9.372-4.17c.376 0 .681.305.681.682 0 .4-.242.77-.681.77-.44 0-.682-.37-.682-.77 0-.377.305-.682.682-.682Zm6.864 0a.68.68 0 0 1 .68.682c0 .4-.241.77-.68.77-.44 0-.682-.37-.682-.77 0-.377.305-.682.682-.682Zm-5.198 1.166a.68.68 0 0 1 .681-.68h2.22a.681.681 0 0 1 0 1.362h-2.22a.681.681 0 0 1-.681-.681Z" clip-rule="evenodd"/>
</svg>
