<svg xmlns="http://www.w3.org/2000/svg" width="24" height="24" fill="none" viewBox="0 0 24 24">
  <path fill="#B6B6B6" d="M5.025 7.737a3.562 3.562 0 0 1 3.561-3.562h3.833a3.562 3.562 0 0 1 3.562 3.562v12.61a2.035 2.035 0 0 1-2.035 2.035H7.06a2.035 2.035 0 0 1-2.035-2.036V7.737Z"/>
  <path fill="#18193F" fill-rule="evenodd" d="M2.293 5.435a3.816 3.816 0 0 1 3.816-3.817h4.608a3.816 3.816 0 0 1 3.816 3.817v1.398a.763.763 0 1 1-1.526 0V5.435a2.29 2.29 0 0 0-2.29-2.29H6.11a2.29 2.29 0 0 0-2.29 2.29v8.557a.763.763 0 0 1-1.526 0V5.435Zm3.105.547c0-.703.57-1.272 1.272-1.272h3.466c.703 0 1.272.57 1.272 1.272v2.9c0 .702-.57 1.272-1.272 1.272H6.67c-.702 0-1.272-.57-1.272-1.272v-2.9Zm1.527.254v2.391h2.957v-2.39H6.925Zm9.273-.936a.763.763 0 0 1 1.073-.113l4.531 3.67c.299.242.472.605.472.989v7.198a2.29 2.29 0 0 1-2.29 2.29h-.628a2.29 2.29 0 0 1-2.29-2.29v-2.288h-2.533v4.54a.764.764 0 0 1-.197 1.501H2.49a.763.763 0 0 1-.197-1.5v-1.844a.763.763 0 1 1 1.526 0v1.817h9.188V9.873a.763.763 0 1 1 1.526 0v3.356h3.296c.422 0 .764.342.764.763v3.052c0 .422.341.763.763.763h.628a.763.763 0 0 0 .763-.763v-4.13h-.62a2.799 2.799 0 0 1-2.799-2.798V7.197l-1.018-.824a.763.763 0 0 1-.112-1.073Zm2.657 3.134v1.682c0 .703.57 1.272 1.272 1.272h.62V9.967l-1.892-1.533Z" clip-rule="evenodd"/>
</svg>
