<svg xmlns="http://www.w3.org/2000/svg" width="24" height="24" fill="none" viewBox="0 0 24 24">
  <path fill="#94D82D" d="M5.711 12.832a8.145 8.145 0 1 1 16.29 0v4.893c0 .542-.44.982-.983.982H6.693a.982.982 0 0 1-.982-.982v-4.893Z"/>
  <path fill="#18193F" fill-rule="evenodd" d="M2.434 11.601a9.54 9.54 0 0 1 19.079 0v4.928a1.228 1.228 0 0 1 1.223 1.228v2.954c0 .678-.55 1.228-1.227 1.228H8.383a.736.736 0 1 1 0-1.473h12.88v-2.464H2.736v2.464h1.975a.736.736 0 1 1 0 1.473h-2.22c-.678 0-1.228-.55-1.228-1.228v-2.954c0-.678.55-1.228 1.228-1.228h3.081v-5.274a6.375 6.375 0 0 1 6.375-6.374c3.077 0 5.636 2.204 6.24 5.097a.736.736 0 1 1-1.442.301c-.466-2.235-2.443-3.925-4.798-3.925a4.902 4.902 0 0 0-4.902 4.901v5.274h1.452v-5.06a3.45 3.45 0 1 1 6.899 0v5.06h1.453v-3.264a.737.737 0 0 1 1.472 0v3.264h1.719v-4.928a8.067 8.067 0 0 0-16.133 0v2.523a.736.736 0 0 1-1.473 0V11.6Zm11.489 4.928v-5.06a1.976 1.976 0 1 0-3.953 0v5.06h3.953Z" clip-rule="evenodd"/>
</svg>
