<svg xmlns="http://www.w3.org/2000/svg" width="24" height="24" fill="none" viewBox="0 0 24 24">
  <path fill="#FA5252" d="m17.804 16.509 3.49-12.119a.468.468 0 0 0-.312-.58c-4.89-1.412-5.279 5.282-4.988 8.842.042.506-.823 1.008-1.269.766-3.382-1.834-7.997-.98-8.678.06-.641.978-.052 3.106 1.223 3.376a.413.413 0 0 0 .086.008h9.979a.488.488 0 0 0 .47-.353Z"/>
  <path fill="#18193F" fill-rule="evenodd" d="M16.433 1.56c1.51-.82 3.974.301 3.168 2.26-.19.459-.496.972-1.091.727-.596-.245-.452-.826-.263-1.285.248-.603-.814-.578-1.116-.415-.699.38-1.291.878-1.73 1.633-.442.763-.759 1.84-.81 3.423-.027.797.015 1.719.14 2.785a3.96 3.96 0 0 1 1.391 1.177l1.199-5.519a.732.732 0 1 1 1.431.31l-1.796 8.272a.732.732 0 0 1-.716.577h-4.155v3.626a1.22 1.22 0 0 1-1.22 1.22H9.24a1.5 1.5 0 0 0-1.382.917h6.989a1.503 1.503 0 0 0-.985-.864.732.732 0 0 1 .386-1.413 2.966 2.966 0 0 1 2.181 2.86.881.881 0 0 1-.88.881H7.156a.881.881 0 0 1-.881-.88 2.965 2.965 0 0 1 2.964-2.965h1.38v-3.382H8.074v.7a2.685 2.685 0 0 1-2.685 2.684H2.58a.732.732 0 0 1 0-1.465h2.81a1.22 1.22 0 0 0 1.22-1.22v-.72a2.905 2.905 0 0 1 .347-5.788l1.222-.038a3.173 3.173 0 0 1 3.103-2.512h1.887c.12-1.408.454-2.517.967-3.401.6-1.035 1.415-1.706 2.298-2.185ZM13.12 8.61h-1.839a1.71 1.71 0 0 0-1.633 1.206l3.571.515a21.056 21.056 0 0 1-.099-1.72Zm.749 3.294c-.86-.347-5.95-.743-6.913-.743a1.44 1.44 0 1 0 0 2.88h8.474c-.096-.946-.668-1.777-1.561-2.137Z" clip-rule="evenodd"/>
</svg>
