<svg xmlns="http://www.w3.org/2000/svg" width="24" height="24" fill="none" viewBox="0 0 24 24">
  <path fill="#FCC419" d="M21.403 12.86a7.526 7.526 0 1 1-15.051 0 7.526 7.526 0 0 1 15.051 0Z"/>
  <path fill="#18193F" fill-rule="evenodd" d="M11.871 7.894a3.382 3.382 0 0 1 .61.013.619.619 0 1 0 .139-1.23 4.604 4.604 0 0 0-1.169.019c-.445.064-.683.429-.738.735a.77.77 0 0 1-1.055.58c-.287-.117-.722-.11-1.015.23a4.56 4.56 0 0 0-.794 1.327c-.168.435.054.832.309 1.025a.772.772 0 0 1 0 1.235c-.255.193-.477.59-.309 1.024.189.49.46.938.794 1.328.292.34.727.346 1.015.229a.771.771 0 0 1 .68.046.619.619 0 0 0 .619-1.072 2.006 2.006 0 0 0-1.527-.2 3.322 3.322 0 0 1-.326-.542 2.006 2.006 0 0 0 0-2.862c.092-.19.2-.372.326-.541a2.006 2.006 0 0 0 1.527-.2c.456-.264.77-.679.914-1.144Zm1.368.298a.619.619 0 0 1 .845-.226c.191.11.409.13.606.072a.89.89 0 0 1 .94.276c.343.418.615.899.794 1.423a.887.887 0 0 1-.232.92.77.77 0 0 0 0 1.107.89.89 0 0 1 .232.92 4.554 4.554 0 0 1-.795 1.423c-.263.32-.66.357-.94.275a.77.77 0 0 0-.976.591c-.058.286-.276.62-.682.705a4.576 4.576 0 0 1-1.264.081.619.619 0 0 1 .09-1.234 3.335 3.335 0 0 0 .702-.021c.148-.456.459-.862.907-1.12a2.005 2.005 0 0 1 1.345-.241 3.32 3.32 0 0 0 .366-.657 2.005 2.005 0 0 1-.457-1.276c0-.484.172-.928.457-1.275a3.319 3.319 0 0 0-.366-.657 2.005 2.005 0 0 1-1.345-.24.619.619 0 0 1-.226-.846Z" clip-rule="evenodd"/>
  <path fill="#18193F" d="M13.2 11.21a1.077 1.077 0 1 1-2.154 0 1.077 1.077 0 0 1 2.154 0Z"/>
  <path fill="#18193F" d="M18.179 15.05a7.198 7.198 0 0 1-13.33-2.944h.783a.412.412 0 0 0 .326-.663l-1.396-1.81a.412.412 0 0 0-.653 0l-1.397 1.81a.412.412 0 0 0 .327.664h.766a8.435 8.435 0 0 0 15.634 3.581.619.619 0 1 0-1.06-.637ZM5.821 7.728a7.198 7.198 0 0 1 13.33 2.944h-.783a.412.412 0 0 0-.326.664l1.396 1.81a.412.412 0 0 0 .653 0l1.396-1.81a.412.412 0 0 0-.326-.665h-.767a8.435 8.435 0 0 0-15.633-3.58.619.619 0 1 0 1.06.637Z"/>
</svg>
