<svg xmlns="http://www.w3.org/2000/svg" width="25" height="24" fill="none" viewBox="0 0 25 24">
  <path fill="#94D82D" d="M21.183 14.704c.038-.397.057-.803.057-1.215 0-4.7-2.5-8.511-5.585-8.511H11.57c-3.084 0-5.585 3.81-5.585 8.51 0 4.701 2.5 8.512 5.585 8.512h4.085c1.902 0 3.582-1.449 4.59-3.662l-2.024 2.024a2.316 2.316 0 1 1-3.276-3.276l2.698-2.697a2.316 2.316 0 0 1 3.54.315Z"/>
  <path fill="#18193F" d="M4.687 11.462c0-2.32.537-4.387 1.368-5.85.843-1.482 1.9-2.211 2.914-2.211h1.035a.7.7 0 0 0 0-1.401H8.97C7.232 2 5.798 3.232 4.837 4.92c-.971 1.71-1.55 4.024-1.55 6.542 0 2.519.579 4.833 1.55 6.542.96 1.69 2.395 2.92 4.132 2.92h5.453a.7.7 0 0 0 .651-.443 2.328 2.328 0 0 1-.664-.957c-1.01-.006-2.062-.736-2.902-2.212-.831-1.462-1.367-3.529-1.367-5.85 0-.35.012-.696.035-1.034a.7.7 0 1 0-1.397-.098c-.026.371-.039.75-.039 1.132 0 2.519.579 4.833 1.55 6.542.324.569.7 1.085 1.125 1.52H8.969c-1.014 0-2.071-.73-2.914-2.212-.831-1.462-1.368-3.529-1.368-5.85Z"/>
  <path fill="#18193F" d="M19.933 13.803a2.326 2.326 0 0 0-1.424.039c.126-.748.195-1.546.195-2.38 0-2.32-.537-4.387-1.368-5.85-.843-1.482-1.9-2.211-2.914-2.211-1.273 0-2.62 1.17-3.484 3.428a.7.7 0 1 1-1.308-.5C10.556 3.908 12.247 2 14.422 2c1.737 0 3.171 1.232 4.131 2.92.972 1.71 1.551 4.024 1.551 6.542 0 .804-.059 1.589-.171 2.341Z"/>
  <path fill="#18193F" fill-rule="evenodd" d="M14.422 6.696c-.478 0-.881.218-1.19.51-.306.288-.55.673-.739 1.094-.379.846-.595 1.964-.595 3.162 0 1.199.216 2.317.595 3.162.19.422.433.807.738 1.095.31.292.713.51 1.19.51.478 0 .882-.218 1.191-.51.306-.288.549-.673.738-1.095.38-.845.596-1.963.596-3.162 0-1.198-.217-2.316-.596-3.162-.189-.421-.432-.806-.738-1.094-.31-.292-.713-.51-1.19-.51Zm-1.124 4.766c0-1.047.192-1.962.473-2.589.14-.314.29-.525.421-.648.127-.12.204-.129.23-.129.026 0 .102.009.23.129.13.123.28.334.42.648.281.627.473 1.542.473 2.59 0 1.047-.192 1.962-.473 2.588-.14.315-.29.526-.42.649-.128.12-.204.129-.23.129-.027 0-.103-.01-.23-.129-.13-.123-.28-.334-.421-.649-.28-.626-.473-1.54-.473-2.589Zm4.675 3.257a1.85 1.85 0 0 1 2.616 2.615l-.742.742a1.85 1.85 0 0 1-2.616 0 .467.467 0 0 1 .66-.66.916.916 0 0 0 1.296 0l.742-.742a.916.916 0 0 0-1.296-1.295l-.37.37a.467.467 0 0 1-.66-.66l.37-.37Zm-1.767 1.766a1.85 1.85 0 0 1 2.616 0 .467.467 0 0 1-.66.66.916.916 0 0 0-1.295 0l-.931.931a.916.916 0 0 0 1.295 1.296l.503-.503a.467.467 0 0 1 .66.66l-.503.503a1.85 1.85 0 1 1-2.615-2.616l.93-.931Z" clip-rule="evenodd"/>
</svg>
