<svg xmlns="http://www.w3.org/2000/svg" width="24" height="24" fill="none" viewBox="0 0 24 24">
  <path fill="#94D82D" d="M20.202 17.815c.492-1.268.775-2.747.775-4.326 0-4.7-2.501-8.511-5.586-8.511h-4.084c-3.085 0-5.585 3.81-5.585 8.51 0 4.701 2.5 8.512 5.585 8.512h4.084c1.267 0 2.435-.643 3.372-1.726a1.6 1.6 0 0 1-.279.024h-4.482c-.787 0-1.486-.734-1.486-1.52 0-.787.643-1.712 1.43-1.712.105-.598.48-.831 1.081-.924.26-.776.985-1.269 1.849-1.269 1.008 0 1.85.717 1.957 1.697.648.124 1.166.619 1.37 1.245Z"/>
  <path fill="#18193F" d="M4.424 11.462c0-2.32.536-4.387 1.367-5.85.843-1.482 1.9-2.211 2.915-2.211H9.74A.7.7 0 0 0 9.74 2H8.706C6.968 2 5.534 3.232 4.574 4.92c-.972 1.71-1.55 4.024-1.55 6.542 0 2.519.578 4.833 1.55 6.542.96 1.69 2.394 2.92 4.132 2.92h5.445c.691.014 1.407-.327 1.913-.626h-2.062c-.751 0-1.423-.669-1.482-1.414-.454-.366-.888-.889-1.276-1.572-.832-1.462-1.368-3.529-1.368-5.85 0-.35.012-.696.036-1.034a.7.7 0 0 0-1.397-.098c-.026.371-.04.75-.04 1.132 0 2.519.58 4.833 1.551 6.542a7.47 7.47 0 0 0 1.124 1.52H8.706c-1.015 0-2.072-.73-2.915-2.212-.83-1.462-1.367-3.529-1.367-5.85Z"/>
  <path fill="#18193F" fill-rule="evenodd" d="M15.794 15.172a1.811 1.811 0 0 0-.667.73 1.648 1.648 0 0 1-.969.327c-.477 0-.88-.218-1.19-.51-.306-.288-.55-.673-.738-1.095-.38-.845-.596-1.963-.596-3.162 0-1.198.217-2.316.596-3.162.189-.421.432-.806.738-1.094.31-.292.713-.51 1.19-.51.478 0 .881.218 1.19.51.306.288.55.673.739 1.094.379.846.595 1.964.595 3.162 0 1.199-.216 2.317-.595 3.162a4.233 4.233 0 0 1-.293.548Zm-2.76-3.71c0-1.047.193-1.962.474-2.589.14-.314.29-.525.42-.648.128-.12.204-.129.23-.129.026 0 .103.009.23.129.13.123.28.334.42.648.282.627.474 1.542.474 2.59 0 1.047-.192 1.962-.473 2.588-.141.315-.29.526-.421.649-.127.12-.204.129-.23.129-.026 0-.102-.01-.23-.129-.13-.123-.28-.334-.42-.649-.281-.626-.473-1.54-.473-2.589Z" clip-rule="evenodd"/>
  <path fill="#18193F" d="M17.947 15.174c.483.299.82.799.887 1.396.039.008.077.016.116.027.57-1.493.89-3.264.89-5.135 0-2.518-.578-4.832-1.55-6.542C17.33 3.232 15.896 2 14.158 2c-2.174 0-3.865 1.908-4.791 4.329a.7.7 0 1 0 1.308.5c.863-2.258 2.21-3.428 3.483-3.428 1.014 0 2.072.73 2.915 2.212.83 1.462 1.367 3.529 1.367 5.85 0 1.35-.181 2.61-.493 3.71Zm1.716 3.145c0 .821-.666 1.488-1.488 1.488h-3.822a1.167 1.167 0 0 1-1.168-1.167c0-.645.541-1.167 1.186-1.167.086-.49.477-.874.97-.95a1.606 1.606 0 0 1 3.116.334 1.489 1.489 0 0 1 1.206 1.462Z"/>
</svg>
