<svg xmlns="http://www.w3.org/2000/svg" width="24" height="24" fill="none" viewBox="0 0 24 24">
  <path fill="#94D82D" fill-rule="evenodd" d="M20.977 13.489c0 4.7-2.501 8.511-5.586 8.511h-4.084c-3.085 0-5.585-3.81-5.585-8.511 0-4.7 2.5-8.511 5.585-8.511h4.084c3.085 0 5.586 3.81 5.586 8.51Zm-3.74.611c.183-.182.67-.182.852 0l1.918 1.902c.182.183.156.712-.027.895l-1.904 1.914a.466.466 0 0 1-.373.135.465.465 0 0 1-.024.173l-.522 1.482c-.115.407-.684.493-.93.247l-.954-.97-1.229 1.228c-.288.288-.94.473-1.228.185-.288-.288-.103-.94.185-1.228l1.23-1.229-.898-.863c-.247-.246-.103-.92.23-1.026l1.447-.5a.469.469 0 0 1 .153-.022.466.466 0 0 1 .133-.391l1.942-1.932Z" clip-rule="evenodd"/>
  <path fill="#18193F" d="M4.424 11.462c0-2.32.536-4.387 1.367-5.85.843-1.482 1.9-2.211 2.915-2.211H9.74A.7.7 0 1 0 9.74 2H8.706C6.968 2 5.534 3.232 4.574 4.92c-.972 1.71-1.55 4.024-1.55 6.542 0 2.519.578 4.833 1.55 6.542.96 1.69 2.394 2.92 4.132 2.92h3.977c-.05-.235.217-.76.4-.943l.527-.527c-.838-.215-1.674-.925-2.366-2.142-.832-1.462-1.368-3.529-1.368-5.85 0-.35.012-.696.036-1.034a.7.7 0 0 0-1.397-.098c-.026.371-.04.75-.04 1.132 0 2.519.58 4.833 1.551 6.542a7.47 7.47 0 0 0 1.124 1.52H8.706c-1.015 0-2.072-.73-2.915-2.212-.83-1.462-1.367-3.529-1.367-5.85Zm10.849 8.415-1.047 1.047a3.733 3.733 0 0 0 1.663-.432l-.616-.615Z"/>
  <path fill="#18193F" d="m18.183 14.18 1.168 1.168c.316-1.19.49-2.507.49-3.886 0-2.518-.58-4.832-1.551-6.542C17.33 3.232 15.896 2 14.158 2c-2.174 0-3.865 1.908-4.791 4.329a.7.7 0 0 0 1.308.5c.863-2.258 2.21-3.428 3.483-3.428 1.014 0 2.072.73 2.915 2.212.83 1.462 1.367 3.529 1.367 5.85 0 .957-.091 1.871-.257 2.718Z"/>
  <path fill="#18193F" fill-rule="evenodd" d="M14.158 6.696c-.477 0-.88.218-1.19.51-.306.288-.55.673-.738 1.094-.38.846-.596 1.964-.596 3.162 0 1.199.217 2.317.596 3.162.189.422.432.807.738 1.095.31.292.713.51 1.19.51.478 0 .881-.218 1.19-.51.306-.288.55-.673.739-1.095.379-.845.595-1.963.595-3.162 0-1.198-.216-2.316-.595-3.162-.19-.421-.433-.806-.738-1.094-.31-.292-.713-.51-1.19-.51Zm-1.123 4.766c0-1.047.192-1.962.473-2.589.14-.314.29-.525.42-.648.128-.12.204-.129.23-.129.026 0 .103.009.23.129.13.123.28.334.42.648.282.627.474 1.542.474 2.59 0 1.047-.192 1.962-.473 2.588-.141.315-.29.526-.421.649-.127.12-.204.129-.23.129-.026 0-.102-.01-.23-.129-.13-.123-.28-.334-.42-.649-.281-.626-.473-1.54-.473-2.589Z" clip-rule="evenodd"/>
  <path fill="#18193F" d="M17.407 14.746a.467.467 0 0 1 .66 0l1.28 1.28a.467.467 0 0 1 0 .66l-1.305 1.304a.467.467 0 0 1-.66 0l-1.279-1.28a.467.467 0 0 1 0-.66l1.304-1.304Zm-1.782 2.252 1.498 1.498c.125.125.169.31.113.477l-.344 1.035a.467.467 0 0 1-.773.183l-.836-.835-1.402 1.41c-.146.147-.538.3-.685.153-.146-.147.006-.537.152-.684l1.404-1.411-.83-.83a.467.467 0 0 1 .187-.774l1.043-.336a.467.467 0 0 1 .473.114Z"/>
</svg>
