<svg xmlns="http://www.w3.org/2000/svg" width="24" height="24" fill="none" viewBox="0 0 24 24">
  <path fill="#B6B6B6" d="M21.302 13.543c0 4.87-2.591 8.82-5.788 8.82h-4.232c-3.197 0-5.788-3.95-5.788-8.82 0-4.871 2.591-8.82 5.788-8.82h4.232c3.197 0 5.788 3.949 5.788 8.82Z"/>
  <path fill="#18193F" fill-rule="evenodd" d="M5.566 5.381C4.705 6.896 4.15 9.038 4.15 11.443c0 2.405.556 4.547 1.417 6.062.874 1.536 1.97 2.292 3.02 2.292h2.533a7.736 7.736 0 0 1-1.164-1.575c-1.007-1.771-1.607-4.17-1.607-6.779 0-.397.014-.789.04-1.174a.726.726 0 1 1 1.448.102 15.7 15.7 0 0 0-.037 1.072c0 2.405.556 4.547 1.417 6.062.874 1.536 1.97 2.292 3.02 2.292a.726.726 0 1 1 0 1.452h-5.65c-1.8 0-3.286-1.277-4.281-3.027-1.008-1.771-1.607-4.17-1.607-6.779 0-2.61.6-5.008 1.607-6.78.995-1.75 2.48-3.026 4.281-3.026H9.66V3.09H8.586c-1.05 0-2.146.756-3.02 2.292Zm8.67-2.292c-1.319 0-2.714 1.212-3.61 3.552a.726.726 0 1 1-1.355-.518c.96-2.509 2.712-4.486 4.965-4.486 1.8 0 3.287 1.277 4.282 3.027 1.007 1.77 1.607 4.17 1.607 6.779 0 3.431-1.04 6.536-2.717 8.3a.726.726 0 0 1-1.052-1.001c1.339-1.408 2.318-4.102 2.318-7.299 0-2.405-.556-4.547-1.417-6.062-.874-1.536-1.97-2.292-3.02-2.292Zm-3.851-.726c0 .4-.325.726-.726.726V1.637c.4 0 .726.325.726.726Zm3.177 6.397c-.29.65-.49 1.597-.49 2.683 0 1.086.2 2.034.49 2.683.146.325.301.544.437.672.131.124.21.133.238.133.027 0 .106-.009.237-.133.136-.128.29-.347.437-.672.29-.65.49-1.597.49-2.683 0-1.086-.2-2.034-.49-2.683-.146-.325-.301-.544-.437-.672-.131-.124-.21-.133-.237-.133-.027 0-.107.009-.238.133-.136.128-.29.347-.437.672Zm-.559-1.728c.32-.302.739-.529 1.234-.529.494 0 .912.227 1.233.53.317.298.569.696.765 1.133.393.876.617 2.035.617 3.277s-.224 2.4-.617 3.277c-.196.437-.448.835-.765 1.134-.32.302-.739.529-1.233.529-.495 0-.913-.227-1.234-.53-.317-.298-.569-.696-.765-1.133-.393-.876-.617-2.035-.617-3.277s.224-2.4.617-3.277c.196-.437.448-.835.765-1.134Z" clip-rule="evenodd"/>
</svg>
