<svg xmlns="http://www.w3.org/2000/svg" width="24" height="24" fill="none" viewBox="0 0 24 24">
  <path fill="#FA5252" d="M6.656 6.641c.218-.54.741-.894 1.323-.894h11.156c.582 0 1.106.354 1.323.894l1.439 3.573c.068.17.103.35.103.533v8.831c0 .788-.639 1.427-1.426 1.427H6.54a1.426 1.426 0 0 1-1.427-1.427v-8.831c0-.183.035-.363.103-.533l1.44-3.573Z"/>
  <path fill="#18193F" fill-rule="evenodd" d="M6.177 4.698 3.576 8.061c-.224.289-.15.706-.15 1.046l5.818-.06c.38-1.035 1.22-1.898 2.37-1.898 1.132 0 1.964.838 2.352 1.85l6.132-.063c0-.294.053-.631-.119-.89l-2.192-3.305a.713.713 0 0 0-.594-.32H9.871a.713.713 0 1 1 0-1.426h7.322c.717 0 1.387.36 1.783.957l2.192 3.306c.233.35.357.762.357 1.182v9.455a2.14 2.14 0 0 1-2.14 2.14h-4.507a.713.713 0 1 1 0-1.426h1.883v-.01c0-1.742 1.584-2.995 3.327-2.995h.01v-5.241l-5.88.06c-.004.832-.255 1.612-.694 2.202-.443.594-1.11 1.031-1.91 1.031-.8 0-1.467-.437-1.91-1.031-.43-.577-.68-1.337-.694-2.149l-5.584.057v5.078c1.658.096 3.116 1.317 3.116 2.988v.01h4.886a.713.713 0 1 1 0 1.426H4.14A2.14 2.14 0 0 1 2 17.895V8.498c0-.474.157-.935.447-1.31L5.05 3.825c.536-.692 1.299-.83 2.115-.83a.713.713 0 1 1 0 1.427c-.358 0-.74-.042-.987.276Zm-1.062 13.91v-.01c0-.728-.664-1.467-1.689-1.558v.855c0 .394.32.714.714.714h.975Zm14.983-1.577h-.01c-1.144 0-1.901.79-1.901 1.568v.01h1.198c.394 0 .713-.32.713-.714v-.864Zm-8.484-8.456c-.848 0-1.178 1.132-1.178 1.827 0 .662.333 1.828 1.178 1.828s1.178-1.166 1.178-1.828c0-.695-.33-1.827-1.178-1.827Z" clip-rule="evenodd"/>
</svg>
